<svg width="24" height="24" viewBox="0 0 24 24" fill="none" xmlns="http://www.w3.org/2000/svg">
<g clip-path="url(#clip0)">
<path d="M-12 0H36V24H-12V0Z" fill="#012169"/>
<path d="M-12 0V2.6832L30.6336 24H36V21.3168L-6.6336 0.0048H-12V0ZM36 0V2.6832L-6.6336 24H-12V21.3168L30.6336 0H36Z" fill="white"/>
<path d="M8.0016 0V24H15.9984V0H8.0016ZM-12 8.0016V15.9984H36V8.0016H-12Z" fill="white"/>
<path d="M-12 9.6V14.4H36V9.6H-12ZM9.6 0V24H14.4V0H9.6ZM-12 24L3.9984 15.9984H7.584L-8.424 24H-12ZM-12 0L3.9984 8.0016H0.4224L-12 1.7904V0ZM16.4208 8.0016L32.424 0H36L20.0016 8.0016H16.416H16.4208ZM36.0048 24L19.9968 15.9984H23.5728L36 22.2096V24H36.0048Z" fill="#C8102E"/>
</g>
<defs>
<clipPath id="clip0">
<path d="M0 8C0 3.58172 3.58172 0 8 0H16C20.4183 0 24 3.58172 24 8V16C24 20.4183 20.4183 24 16 24H8C3.58172 24 0 20.4183 0 16V8Z" fill="white"/>
</clipPath>
</defs>
</svg>
