<svg width="113" height="36" viewBox="0 0 113 36" fill="none" xmlns="http://www.w3.org/2000/svg">
<path d="M83.884 0C83.0925 0 82.4374 0.299797 81.882 0.914785C81.3249 1.54246 81.0537 2.26976 81.0537 3.13744C81.0537 4.0151 81.3241 4.74239 81.882 5.36101C82.4374 5.98777 83.0925 6.2921 83.8832 6.2921C84.6738 6.2921 85.3289 5.98777 85.886 5.3592C86.4422 4.74239 86.7126 4.0151 86.7126 3.13744C86.7126 2.26976 86.4414 1.54246 85.886 0.916598C85.3306 0.299797 84.6755 0 83.884 0Z" fill="white"/>
<path fill-rule="evenodd" clip-rule="evenodd" d="M66.1502 19.9315L71.0029 5.0277H78.9733V27.0632H74.1394V13.3097C74.1394 13.1304 74.0292 12.9673 73.8699 12.9329C73.8462 12.9284 73.8233 12.9266 73.7996 12.9266C73.6559 12.9266 73.5252 13.0253 73.4754 13.1774L68.9674 27.0632H63.3469L58.8242 13.1774C58.7687 13.0035 58.607 12.9003 58.4436 12.9311C58.4011 12.9392 58.3619 12.9555 58.3268 12.98C58.2255 13.0461 58.1602 13.1675 58.1602 13.3052V25.9355C58.1602 26.1357 58.1544 26.3332 58.1438 26.5306C58.1283 26.8576 58.0956 27.1782 58.0507 27.4952L58.0474 27.5097C57.5574 30.9805 55.4655 33.8634 52.6377 35.1993C52.5895 35.222 52.5397 35.2446 52.4915 35.2655C52.0406 35.4692 51.571 35.6323 51.0866 35.7536C50.8154 35.8216 50.5393 35.875 50.2592 35.9158C49.8736 35.971 49.4816 36 49.083 36H10.5712C6.48466 36 2.94052 33.4295 1.18111 29.6662C0.882156 29.0286 0.635478 28.3575 0.447614 27.6582C0.156012 26.5877 0 25.4537 0 24.2772V5.0277H4.81918V23.7935C4.81918 27.5822 7.5898 30.6544 11.0065 30.6544H48.6844C49.4252 30.6544 50.1244 30.4624 50.746 30.1209C51.0547 29.9524 51.3439 29.7459 51.6094 29.5077L51.611 29.5059C52.4801 28.727 53.0919 27.6093 53.2797 26.3313C53.3099 26.1303 53.3287 25.9265 53.3377 25.7182C53.3402 25.6421 53.3418 25.5651 53.3418 25.4872V5.0277H61.3122L66.1502 19.9315ZM56.1173 7.29293H55.3838V11.3587H56.1173V7.29293ZM13.9642 32.9196V33.7348H18.6372V32.9196H13.9642ZM20.7339 32.9196V33.7348H25.4069V32.9196H20.7339ZM27.5053 32.9196V33.7348H32.1782V32.9196H27.5053ZM34.2766 32.9196V33.7348H38.9496V32.9196H34.2766ZM41.048 32.9196V33.7348H45.721V32.9196H41.048ZM2.77634 14.5523H2.04284V19.407H2.77634V14.5523ZM2.77634 7.37354H2.04284V12.2273H2.77634V7.37354ZM2.77634 23.7935V21.6514H2.04203V24.2772C2.07633 25.1802 2.19967 26.0388 2.40714 26.8449L3.16269 26.5324C2.925 25.6765 2.79104 24.7581 2.77634 23.7935ZM3.94928 28.516L3.14717 28.8493C3.90027 30.3809 5.01195 31.6217 6.38991 32.4713L6.72725 31.6498C5.59352 30.8881 4.63622 29.8148 3.94928 28.516ZM8.19261 33.3064C8.93754 33.5491 9.73311 33.694 10.572 33.7348H11.9393V32.9196H11.0073C10.1391 32.9377 9.3002 32.8037 8.50953 32.5347L8.19261 33.3064ZM47.8185 33.7348H49.0838C50.1375 33.7348 51.1895 33.3951 52.1444 32.8109L51.74 32.0347C50.7942 32.6053 49.7429 32.9278 48.6819 32.9196H47.8185V33.7348ZM53.3198 30.7368L53.7339 31.5329C54.6593 30.5819 55.3887 29.3891 55.7857 28.1048L54.9975 27.8847C54.6405 28.9688 54.0532 29.9425 53.3198 30.7368ZM55.3814 25.6376H56.1181V20.7847H55.3846V25.489C55.3846 25.5388 55.3846 25.5878 55.3814 25.6376ZM55.3846 18.4578H56.1181V13.604H55.3846V18.4578Z" fill="white"/>
<path d="M48.65 27.3947H49.7552V23.8687H49.1058C48.628 23.8687 48.2139 23.6776 47.8765 23.3035C47.5245 22.9258 47.3456 22.4648 47.3456 21.9331V12.5833H49.7544V9.05729H47.3456V5.05849H42.5264V20.6053C42.5264 22.4675 43.1309 24.0815 44.3226 25.403C45.5151 26.7244 46.9715 27.3947 48.65 27.3947Z" fill="white"/>
<path fill-rule="evenodd" clip-rule="evenodd" d="M20.6865 26.6909C19.69 27.1365 18.638 27.363 17.5598 27.363C15.2654 27.363 13.2773 26.4482 11.651 24.644C10.0239 22.8407 9.19892 20.6361 9.19892 18.0919C9.19892 15.5486 10.0239 13.3495 11.6502 11.5562C13.2773 9.75107 15.2654 8.83629 17.5598 8.83629C18.638 8.83629 19.69 9.06272 20.6865 9.50834L21.0876 9.68767V9.02559H25.9068V27.0623H21.0876V26.5116L20.6865 26.6909ZM17.5598 14.1801C16.5911 14.1801 15.7489 14.5686 15.0587 15.334C14.3685 16.0866 14.0181 17.0159 14.0181 18.0919C14.0181 19.167 14.3685 20.0999 15.0587 20.8653C15.7489 21.6306 16.5902 22.0192 17.5598 22.0192C18.5302 22.0192 19.3674 21.6306 20.0486 20.8635C20.7372 20.0999 21.0876 19.167 21.0876 18.0919C21.0876 17.0159 20.7372 16.0876 20.0453 15.3322C19.3674 14.5686 18.5302 14.1801 17.5598 14.1801Z" fill="white"/>
<path d="M33.6085 20.7611C31.7421 20.368 30.3584 19.5311 29.495 18.2749C28.8971 17.4135 28.5622 16.3828 28.4985 15.2108C28.4087 13.5687 28.8595 12.1159 29.8373 10.8923C30.8166 9.65688 32.0582 8.97577 33.5301 8.86618C33.7318 8.84987 33.9311 8.84172 34.1255 8.84172C35.9977 8.84172 37.6533 9.61522 39.0525 11.1432L35.5337 14.8331C35.0877 14.4201 34.5478 14.2109 33.9246 14.2109H33.8347L33.8168 14.2136C33.6828 14.2326 33.5538 14.3005 33.4337 14.4174L33.419 14.4319L33.4059 14.4482C33.3087 14.5723 33.2671 14.7018 33.2834 14.8331C33.2973 14.95 33.3569 15.0523 33.45 15.1211C33.691 15.2878 34.0373 15.4101 34.516 15.5025C37.9972 16.2361 39.7762 18.0466 39.9486 21.0374C40.0384 22.7791 39.5606 24.2835 38.5298 25.5062C37.4793 26.7607 36.1226 27.3956 34.4947 27.3956C32.4021 27.3956 30.6345 26.6293 29.2377 25.1177L32.7418 21.4159C33.0073 21.6659 33.3144 21.848 33.6575 21.9594C33.8952 22.0273 34.0585 22.0581 34.1827 22.0581C34.217 22.0581 34.2489 22.0554 34.2783 22.0509H34.3387C34.605 22.0382 34.8174 21.9766 34.9815 21.867C35.1424 21.7701 35.1686 21.6179 35.1719 21.5554C35.1759 21.4757 35.1596 21.3236 34.9995 21.2049L34.9824 21.1922L34.9636 21.1823C34.681 21.0319 34.2374 20.8943 33.6085 20.7611Z" fill="white"/>
<path d="M81.4678 9.02559H86.3009V27.0623H81.4678V9.02559Z" fill="white"/>
<path d="M93.6849 5.02679H88.8657V27.0632H93.6849V5.02679Z" fill="white"/>
<path fill-rule="evenodd" clip-rule="evenodd" d="M110.547 11.5707C112.176 13.3649 113 15.5649 113 18.1082V19.8708H101.452L101.779 20.3816C102.479 21.4794 103.447 22.0355 104.655 22.0355C105.535 22.0355 106.309 21.7121 106.958 21.0745L110.367 24.8695C108.78 26.5351 106.86 27.3784 104.654 27.3784C102.359 27.3784 100.37 26.4645 98.7434 24.6603C97.1163 22.857 96.2921 20.6515 96.2921 18.1082C96.2921 15.564 97.1163 13.3649 98.7434 11.5725C100.371 9.76647 102.359 8.85259 104.654 8.85259C106.947 8.85259 108.931 9.76647 110.547 11.5707ZM101.779 15.8321L101.449 16.3448H107.845L107.515 15.8321C106.813 14.7462 105.852 14.1964 104.655 14.1964C103.448 14.1964 102.481 14.7462 101.779 15.8321Z" fill="white"/>
</svg>
